<?xml version="1.0" encoding="UTF-8"?>
<svg width="313px" height="275px" viewBox="0 0 313 275" version="1.1" xmlns="http://www.w3.org/2000/svg" xmlns:xlink="http://www.w3.org/1999/xlink">
    <!-- Generator: Sketch 49.1 (51147) - http://www.bohemiancoding.com/sketch -->
    <title>bg</title>
    <desc>Created with Sketch.</desc>
    <defs>
        <linearGradient x1="96.2741744%" y1="0%" x2="-5.95197366%" y2="109.551301%" id="linearGradient-1">
            <stop stop-color="#ACABFF" offset="0%"></stop>
            <stop stop-color="#72A3FF" offset="100%"></stop>
        </linearGradient>
        <filter x="-20.8%" y="-24.2%" width="141.6%" height="148.3%" filterUnits="objectBoundingBox" id="filter-2">
            <feGaussianBlur stdDeviation="12" in="SourceGraphic"></feGaussianBlur>
        </filter>
        <rect id="path-3" x="0" y="0" width="313" height="244" rx="8"></rect>
    </defs>
    <g id="Page-1" stroke="none" stroke-width="1" fill="none" fill-rule="evenodd">
        <g id="屏幕方答题界面2.2" transform="translate(-1344.000000, -135.000000)">
            <g id="Group-4" transform="translate(214.000000, 121.000000)">
                <g id="Group-9" transform="translate(1130.000000, 14.000000)">
                    <g id="active-users">
                        <g id="bg">
                            <rect id="Rectangle" fill="url(#linearGradient-1)" opacity="0.75" filter="url(#filter-2)" x="71" y="96" width="173" height="149" rx="8"></rect>
                            <mask id="mask-4" fill="white">
                                <use xlink:href="#path-3"></use>
                            </mask>
                            <use id="Rectangle-Copy" fill="url(#linearGradient-1)" xlink:href="#path-3"></use>
                            <g id="ico_true" mask="url(#mask-4)" fill="#FFFFFF" fill-rule="nonzero" opacity="0.230000004">
                                <g transform="translate(152.000000, 32.392857)" id="Shape">
                                    <path d="M146.157702,10.9226184 L60.4804905,131.022772 C60.1980443,131.560958 59.9243877,132.107934 59.4832238,132.567184 C57.0781207,135.047335 53.1811743,135.047335 50.7760713,132.567184 L1.83833443,82.1159677 C-0.566768643,79.6356471 -0.566768643,75.6197047 1.83833443,73.1483426 C4.23921174,70.668022 8.14038387,70.668022 10.5412613,73.1483426 L54.4035868,118.356809 L137.454944,1.95516242 C139.855991,-0.524989201 143.752768,-0.524989201 146.157702,1.95516242 C148.562974,4.42652457 148.562974,8.45125639 146.157702,10.9226184 Z"></path>
                                </g>
                            </g>
                            <ellipse id="Oval-2" fill="#FFFFFF" opacity="0.0799999982" mask="url(#mask-4)" cx="277" cy="169" rx="150" ry="195"></ellipse>
                            <ellipse id="Oval-2-Copy" fill="#FFFFFF" opacity="0.0799999982" mask="url(#mask-4)" cx="82.5" cy="362.5" rx="151.5" ry="196.5"></ellipse>
                        </g>
                    </g>
                </g>
            </g>
        </g>
    </g>
</svg>