<?xml version="1.0" encoding="UTF-8"?>
<svg width="37px" height="39px" viewBox="0 0 37 39" version="1.1" xmlns="http://www.w3.org/2000/svg" xmlns:xlink="http://www.w3.org/1999/xlink">
    <!-- Generator: Sketch 49.1 (51147) - http://www.bohemiancoding.com/sketch -->
    <title>clock</title>
    <desc>Created with Sketch.</desc>
    <defs></defs>
    <g id="Page-1" stroke="none" stroke-width="1" fill="none" fill-rule="evenodd">
        <g id="屏幕方答题界面2.2" transform="translate(-940.000000, -198.000000)" fill="#FFFFFF" fill-rule="nonzero">
            <g id="Group-4" transform="translate(214.000000, 121.000000)">
                <g id="Group">
                    <g id="Group-5" transform="translate(625.000000, 0.000000)">
                        <g id="clock" transform="translate(101.000000, 77.000000)">
                            <path d="M30.6430903,9.56273692 C29.0530364,7.98301485 27.201224,6.74262917 25.1391915,5.87612786 C23.0040011,4.97891267 20.7362301,4.52397678 18.3988284,4.52397678 C16.0614266,4.52397678 13.7936557,4.97891267 11.6585068,5.87612786 C9.59647429,6.74262921 7.74470339,7.98297364 6.15460795,9.56273692 C4.564554,11.1425002 3.31605581,12.9822386 2.4438873,15.0308724 C1.54080404,17.1521887 1.08289273,19.4051829 1.08289273,21.7273966 C1.08289273,24.0495691 1.54080404,26.3026457 2.4438873,28.4239621 C3.31605585,30.4725546 4.56451252,32.3123343 6.15460795,33.8920976 C7.74470339,35.4718196 9.59647429,36.7122053 11.6585068,37.5787066 C13.7936972,38.475963 16.0614267,38.9308989 18.3988284,38.9308989 C20.7361886,38.9308989 23.0040011,38.475963 25.1391915,37.5787066 C27.201224,36.7122053 29.0529949,35.4718608 30.6430903,33.8920976 C32.2331858,32.3123343 33.4816425,30.4726371 34.353811,28.4239621 C35.2569357,26.3026458 35.714847,24.0496103 35.714847,21.7273966 C35.714847,19.4051829 35.2569357,17.1521475 34.353811,15.0308724 C33.4816424,12.9822386 32.2331443,11.1425002 30.6430903,9.56273692 Z M18.3988284,37.7765533 C9.49144724,37.7765533 2.24474669,30.5769405 2.24474673,21.7274379 C2.24474673,12.8779353 9.49144728,5.67832248 18.3988284,5.67832248 C27.3062095,5.67832248 34.5529101,12.8779353 34.5529101,21.7274379 C34.5529101,30.5769405 27.306251,37.7765533 18.3988284,37.7765533 Z M3.01765619,10.3448061 L10.4124154,2.9980967 C10.9457254,2.46825204 11.083244,1.68935729 10.7627684,1.01373525 C10.43889,0.330898538 9.73876499,-0.063475415 8.97917582,0.00846508459 C7.13835995,0.183430929 4.96466099,1.35558648 3.16455297,3.14399776 C1.36440343,4.93245026 0.184581571,7.09202491 0.00851287923,8.9208795 C-0.0641470776,9.67553299 0.333013666,10.3710675 1.02031639,10.6928826 C1.26418997,10.8070803 1.5213838,10.8626951 1.77563142,10.8626951 C2.2303475,10.8626951 2.67560246,10.6846373 3.01765619,10.3448061 Z M1.16513834,9.03078969 C1.31630922,7.46054977 2.37089535,5.56503168 3.98613754,3.96024382 C5.60137973,2.35549718 7.50929507,1.3077636 9.0898049,1.15757496 C9.11348586,1.15530316 9.13726289,1.15416125 9.161054,1.15415316 C9.5158056,1.15415316 9.67100163,1.41994126 9.71170945,1.50581634 C9.75374516,1.59445358 9.86927079,1.90517871 9.5907893,2.18185064 L2.19607158,9.52856004 C1.91754864,9.80523196 1.60479127,9.690457 1.5156158,9.64869443 C1.42357708,9.6056126 1.12633934,9.43369754 1.16513834,9.03078969 Z M36.7891854,8.9208795 C36.6131167,7.09202491 35.4332949,4.93245026 33.6331453,3.14399776 C31.8329958,1.35554527 29.6592968,0.183389674 27.8185224,0.00846508459 C27.0581448,-0.0637639553 26.3587668,0.330898579 26.0349299,1.01373525 C25.7144542,1.68935729 25.8520144,2.46825204 26.3852829,2.99805548 L33.7800421,10.3447649 C34.1220958,10.6846372 34.5673093,10.8626951 35.0220668,10.8626951 C35.2763145,10.8626951 35.5335498,10.8070391 35.7773819,10.6928414 C36.4647261,10.3711087 36.8618453,9.67553299 36.7891854,8.9208795 Z M35.282124,9.64869443 C35.1928655,9.690457 34.8801081,9.80519071 34.6016682,9.52856004 L27.2068674,2.18189185 C26.928386,1.90521992 27.0439116,1.5944948 27.0859473,1.50585755 C27.1266967,1.41998247 27.2818512,1.15419438 27.6366443,1.15419438 C27.6595917,1.15419438 27.6833276,1.15530749 27.7079349,1.15761621 C29.2884447,1.30780481 31.1963186,2.35553844 32.8116022,3.96028508 C34.4268444,5.56503172 35.4814305,7.46054977 35.6325599,9.03083094 C35.6714005,9.43369758 35.3741212,9.60561264 35.282124,9.64869443 Z" id="Shape"></path>
                            <path d="M26.1022439,21.2671045 L18.1911102,21.2671045 L18.1911102,10.1651674 C18.1911102,9.85270198 17.9391566,9.59939973 17.6283548,9.59939973 C17.3175531,9.59939973 17.0655995,9.85270198 17.0655995,10.1651674 L17.0655995,21.8328317 C17.0655995,22.1452971 17.3175531,22.3985994 17.6283548,22.3985994 L26.1022439,22.3985994 C26.4130457,22.3985994 26.6649993,22.1452971 26.6649993,21.8328317 C26.6649993,21.5203663 26.4130859,21.2671045 26.1022439,21.2671045 Z" id="Shape"></path>
                        </g>
                    </g>
                </g>
            </g>
        </g>
    </g>
</svg>