<?xml version="1.0" encoding="UTF-8"?>
<svg width="48px" height="45px" viewBox="0 0 48 45" version="1.1" xmlns="http://www.w3.org/2000/svg" xmlns:xlink="http://www.w3.org/1999/xlink">
    <!-- Generator: Sketch 49.1 (51147) - http://www.bohemiancoding.com/sketch -->
    <title>Flag_of_the_Chinese_Communist_Party</title>
    <desc>Created with Sketch.</desc>
    <defs></defs>
    <g id="Page-1" stroke="none" stroke-width="1" fill="none" fill-rule="evenodd">
        <g id="屏幕方答题界面2.2" transform="translate(-32.000000, -94.000000)" fill-rule="nonzero">
            <g id="Flag_of_the_Chinese_Communist_Party" transform="translate(32.000000, 94.000000)">
                <rect id="Rectangle-path" fill="#DE2910" x="0" y="0" width="47.9970016" height="44.2639015" rx="5"></rect>
                <path d="M24.4761365,8.00345355 C30.591529,10.2970729 34.1193471,17.2923634 30.9403783,23.2303361 L23.0396381,15.740361 L26.2717594,12.6518894 L24.4761365,10.9408573 C23.4548086,11.9417663 21.9803182,12.0158663 20.8848906,11.5745158 L14.4206479,18.0387585 L17.6527692,20.940488 L20.0229915,18.6133579 L28.0673823,26.6779323 C24.2720023,28.7615583 18.662571,28.1964748 14.7797724,24.16406 L12.9871899,25.9394996 C13.5504042,26.7202221 14.0225225,27.2617035 14.6085354,27.8550922 C14.5582503,27.9161794 14.3966002,28.0492422 14.3934277,28.0533362 C14.2944658,28.0365651 14.1781318,27.9983112 14.0745223,27.9983112 C13.0739797,27.9983112 12.2659004,28.8696197 12.2659004,29.8697024 C12.2659004,30.8698414 13.0819321,31.6854941 14.0824746,31.6854941 C15.0830038,31.6854941 15.9387913,30.8618419 15.9387913,29.8617592 C15.9387913,29.7452716 15.912896,29.6386857 15.891753,29.528183 L16.1815177,29.2447903 C20.6457446,32.25582 25.676058,32.6803831 30.9403783,29.5307458 L33.0951266,31.6854941 L35.9681235,28.8124973 L33.8133751,26.6577487 C39.8602655,17.333759 32.0214337,7.77681556 24.4761365,8.00345355 Z" id="Shape" fill="#FFDE00"></path>
            </g>
        </g>
    </g>
</svg>